<svg viewBox="0 0 512 512" xml:space="preserve" xmlns="http://www.w3.org/2000/svg" enable-background="new 0 0 512 512"><path d="M512 397.1c0 63.5-51.4 114.9-114.9 114.9H114.9C51.5 512 0 460.6 0 397.1V114.9C0 51.5 51.5 0 114.9 0h282.2C460.6 0 512 51.5 512 114.9v282.2z" fill="#ffffff" class="fill-010101"></path><path d="M258.5 366.3c-27 0-49.8-3.9-72-12.2-24.7-8.7-46.7-22.1-66.3-39.6-2-1.7-2.2-3.8-.6-4.8 1.4-.8 2.8-.3 3.9.3 2.8 1.7 5.6 3.1 8.7 4.8 10.4 5.6 21.1 10.1 32 14.3 14.3 5.2 29 9.1 43.6 11.9 10.4 1.8 20.8 3.2 30.9 3.9 9 .7 18 1 27 .7 15.7-.3 31.2-2.2 46.7-5.3 16.9-3.4 33.2-8.4 48.9-15.2 1.1-.4 2-.6 3.1-.8 2-.1 3.9.8 4.8 2.7.6 1.5 0 3.4-1.7 4.6-3.9 3.1-7.9 5.6-12.4 8.2-21.6 12.9-45.5 20.5-70.3 24.3-9.7 1.5-19.6 2.3-26.3 2.2z" fill-rule="evenodd" clip-rule="evenodd" fill="#f9a825" class="fill-f58227"></path><path d="M366.4 314.7c-7.3 0-13.8 1-20.2 1.5-.6.1-1.7.4-2.5.1-1.7-.1-2.2-1.3-1.4-2.8.6-.7 1.1-1.3 2-1.8 6.5-4.4 13.8-6.7 21.6-7.4 7.3-.8 14.9-.8 22.5 1.1 4.2 1.3 5.6 2.8 5.1 7.3-.6 14.6-5.3 27.5-14.9 38.5-1.1 1.1-2.2 2.1-3.7 2.8-.8.8-2 1.1-3.1.3-.8-.8-.8-2-.3-2.8 2.8-7.2 5.6-14.1 7.6-21.4.8-3.2 1.4-6.2 1.4-9.6-.6-2.5-1.7-3.9-4.2-4.8-3.4-.7-7.1-1.2-9.9-1z" fill-rule="evenodd" clip-rule="evenodd" fill="#f9a825" class="fill-f58227"></path><path d="M333.5 284c-1.1-1.4-2-2.7-3.1-3.9-4.8-6.2-7.6-13.2-7.9-20.8 0-22.8.6-45.4 0-68-.3-4.9-1.1-9.6-2.5-14.3-3.1-10.8-10.4-18.3-20.5-23.3-11.2-5.9-23.1-8.2-36-7.9-2.5.1-5.1 0-7.9.1-7.9.7-15.5 2.2-22.8 5.2-18.3 7.2-30.1 20.2-33.7 39.9-.3 1.5-.3 2.8.8 3.9 1.1 1.5 2.8 2.1 4.5 2.2 9 1.1 17.4 2.2 26.4 3.2 2.2.4 3.9-.4 5.1-2.7.8-.8 1.1-2 1.4-3.1.8-3.2 2-6 3.9-8.4 5.9-7 13.8-10 22.8-8.9 9.3 1.1 14.6 6.3 16.3 15 1.1 5.6.6 11 .6 16.4 0 1.3-.6 1.5-1.7 1.5-7.6.6-15.2 1.3-22.8 2.2-11 1.4-21.6 3.7-31.8 8.2-13.8 6.5-23.6 16.2-28.1 30.6-2.8 9-2.8 18.1-1.7 27.3 2.2 17.7 14.9 30.9 32.1 34.6 7.3 1.4 14 1.3 21.1.6 6.7-.6 13.2-2.1 18.8-5.1 7-3.7 12.7-8.4 18-14.1 2-1.7 2-1.7 3.4.3 3.6 5.5 7.9 10.4 12.4 14.9 4.2 4.1 8.4 3.9 12.4.3 6.2-5.8 12.9-11.4 19.7-17 3.1-2.5 3.4-5.5.8-8.9zm-54.2-21.9c-1.7 6.2-4.5 11.9-9.3 16.4-4.8 4.6-10.7 7.2-17.7 6.2s-11.5-5.1-13.5-11.7c-3.1-10.1-2-20 5.1-28.3 4.5-5.1 10.4-7.7 16.9-9.1 5.9-1.4 12.1-1.5 18-1.7 1.7-.3 2.2.3 2.2 2v8.7c0 5.1 0 11.5-1.7 17.5z" fill-rule="evenodd" clip-rule="evenodd" fill="#000000" class="fill-ffffff"></path></svg>